<svg xmlns="http://www.w3.org/2000/svg" width="82" height="24" fill="none" viewBox="0 0 82 24">
  <path fill="#151A45" d="M46.516 7.19c-.612-.8-1.59-1.205-2.906-1.205a4.317 4.317 0 00-2.355.675 4.51 4.51 0 00-1.406 1.42l-.19.308-.134-.33a3.43 3.43 0 00-.86-1.283c-.591-.523-1.4-.787-2.402-.787a4.307 4.307 0 00-2.314.604c-.519.328-.949.78-1.252 1.314l-.272.47-.255-2.06h-3.585c.062.499.105 1.01.125 1.52.023.576.035 1.155.035 1.727v8.324h3.842V11.58c0-.835.173-1.494.511-1.965a1.766 1.766 0 011.51-.734c.56 0 .966.189 1.211.563.245.375.344.887.344 1.62v6.821h3.842V11.58c0-.835.176-1.497.526-1.967a1.794 1.794 0 011.516-.732c.578 0 .991.19 1.224.566.232.376.333.886.333 1.616v6.822h3.84v-6.939c0-1.674-.314-2.936-.937-3.754M69.788 8.881c.584 0 1.023.186 1.307.55.285.366.412.922.412 1.704v6.752h3.84v-6.94c0-3.34-1.3-4.963-3.976-4.963a4.41 4.41 0 00-2.336.614 4.542 4.542 0 00-1.43 1.414l-.274.42-.261-2.124h-3.584c.064.508.106 1.02.126 1.522.022.578.035 1.16.035 1.725v8.324h3.84v-6.462c0-.75.213-1.367.632-1.829a2.141 2.141 0 011.669-.707M81.695 6.313h-3.84v11.572h3.84V6.313zM79.748 0a2.177 2.177 0 00-2.027 1.341 2.197 2.197 0 00.463 2.392 2.18 2.18 0 003.731-1.543 2.187 2.187 0 00-.632-1.545A2.173 2.173 0 0079.748 0zM55.514 5.95a6 6 0 00-3.355.992 6.029 6.029 0 00-2.237 2.698 6.052 6.052 0 001.273 6.592 5.996 5.996 0 006.56 1.33 6.018 6.018 0 002.707-2.223 6.048 6.048 0 001.016-3.358 6.029 6.029 0 00-1.74-4.252 5.99 5.99 0 00-4.224-1.78zm0 8.772a2.723 2.723 0 01-2.537-1.677 2.747 2.747 0 01.579-2.992 2.727 2.727 0 014.668 1.928 2.738 2.738 0 01-.79 1.933 2.72 2.72 0 01-1.92.808zM20.719 5.95a6 6 0 00-3.355.992 6.03 6.03 0 00-2.236 2.698 6.052 6.052 0 001.273 6.592 5.996 5.996 0 006.56 1.33 6.018 6.018 0 002.707-2.223 6.048 6.048 0 001.016-3.358 6.027 6.027 0 00-1.74-4.253A5.987 5.987 0 0020.72 5.95zm0 8.772a2.723 2.723 0 01-2.535-1.678 2.747 2.747 0 01.58-2.991 2.727 2.727 0 014.667 1.928 2.736 2.736 0 01-.79 1.934c-.51.514-1.2.804-1.922.807M15 6.305l-4.191-.002-3.31 5.501-.038-.061-3.272-5.44L0 6.305l5.372 9.005-.014.022-3.076 5.172L4.431 24 15 6.305z"/>
</svg>
